<svg width="1510" height="503" viewBox="0 0 1510 503" fill="none" xmlns="http://www.w3.org/2000/svg">
<path d="M65.068 386.354C63.603 386.354 62.1604 386.948 61.1267 387.99C60.0856 389.023 59.4907 390.466 59.4907 391.931C59.4907 393.396 60.0856 394.838 61.1267 395.872C62.1604 396.913 63.603 397.508 65.068 397.508C66.533 397.508 67.9756 396.913 69.0093 395.872C70.0504 394.838 70.6453 393.396 70.6453 391.931C70.6453 390.466 70.0504 389.023 69.0093 387.99C67.9756 386.948 66.533 386.354 65.068 386.354Z" fill="#0AD19D"/>
<path d="M370.478 328.496L327.071 371.904C323.528 369.749 319.372 368.506 314.931 368.506C310.49 368.506 306.334 369.749 302.792 371.904L253.435 322.547C253.373 322.485 253.308 322.433 253.244 322.375C254.434 319.987 255.068 317.339 255.068 314.592C255.068 309.924 253.25 305.535 249.949 302.237L237.221 289.509V244.491L249.947 231.764C253.249 228.464 255.068 224.076 255.068 219.407C255.068 216.66 254.434 214.012 253.244 211.624C253.307 211.566 253.373 211.514 253.434 211.453L302.791 162.096C306.334 164.251 310.49 165.493 314.931 165.493C319.372 165.493 323.528 164.251 327.071 162.095L370.478 205.503C371.567 206.592 372.995 207.137 374.422 207.137C375.849 207.137 377.277 206.592 378.365 205.503C380.544 203.325 380.544 199.794 378.365 197.616L334.958 154.208C337.114 150.665 338.355 146.509 338.355 142.068C338.355 129.152 327.847 118.644 314.931 118.644C310.49 118.644 306.334 119.886 302.792 122.041L259.384 78.6336C257.206 76.4555 253.674 76.4555 251.497 78.6336C249.319 80.8117 249.319 84.3425 251.497 86.5206L294.905 129.928C292.749 133.471 291.506 137.627 291.506 142.068C291.506 146.509 292.749 150.666 294.904 154.208L245.547 203.565C245.486 203.626 245.433 203.692 245.375 203.755C242.988 202.565 240.34 201.931 237.593 201.931C232.922 201.931 228.533 203.75 225.237 207.051L212.509 219.778H167.491L154.766 207.053C151.466 203.75 147.078 201.931 142.407 201.931C139.659 201.931 137.012 202.565 134.624 203.755C134.566 203.692 134.513 203.627 134.452 203.566L85.0951 154.209C87.251 150.666 88.4928 146.509 88.4928 142.068C88.4928 137.627 87.2502 133.471 85.0951 129.928L128.503 86.5206C130.681 84.3425 130.681 80.8117 128.503 78.6336C126.325 76.4555 122.793 76.4555 120.616 78.6336L77.2081 122.041C73.6654 119.886 69.5092 118.644 65.0682 118.644C52.1519 118.644 41.6436 129.152 41.6436 142.068C41.6436 146.509 42.8862 150.665 45.0413 154.208L1.63359 197.616C-0.544529 199.794 -0.544529 203.325 1.63359 205.503C2.72228 206.592 4.15006 207.137 5.57711 207.137C7.00415 207.137 8.43194 206.592 9.52062 205.503L52.9283 162.095C56.471 164.251 60.6272 165.493 65.0682 165.493C69.5092 165.493 73.6654 164.251 77.2074 162.096L126.564 211.453C126.626 211.514 126.691 211.567 126.755 211.624C125.565 214.012 124.931 216.66 124.931 219.407C124.931 224.075 126.749 228.464 130.05 231.763L142.778 244.491V289.509L130.052 302.235C126.75 305.535 124.931 309.924 124.931 314.592C124.931 317.339 125.565 319.988 126.755 322.375C126.692 322.433 126.626 322.485 126.565 322.547L77.2081 371.904C73.6654 369.749 69.5092 368.506 65.0682 368.506C60.6272 368.506 56.471 369.749 52.9283 371.904L9.52062 328.496C7.3425 326.318 3.81096 326.318 1.63359 328.496C-0.544529 330.674 -0.544529 334.206 1.63359 336.383L45.0413 379.791C42.8862 383.334 41.6436 387.49 41.6436 391.931C41.6436 404.847 52.1519 415.355 65.0682 415.355C69.5092 415.355 73.6654 414.114 77.2081 411.959L120.616 455.366C121.704 456.456 123.132 457 124.559 457C125.986 457 127.414 456.456 128.503 455.366C130.681 453.188 130.681 449.657 128.503 447.479L85.0951 404.072C87.251 400.529 88.4928 396.372 88.4928 391.931C88.4928 387.49 87.2502 383.334 85.0951 379.791L134.452 330.434C134.513 330.372 134.566 330.307 134.624 330.244C137.012 331.434 139.659 332.068 142.406 332.068C147.077 332.068 151.466 330.249 154.762 326.949L167.491 314.221H212.509L225.234 326.947C228.533 330.249 232.922 332.068 237.592 332.068C240.34 332.068 242.988 331.434 245.375 330.245C245.433 330.308 245.486 330.373 245.547 330.435L294.904 379.792C292.749 383.334 291.506 387.49 291.506 391.931C291.506 396.372 292.749 400.529 294.904 404.071L251.496 447.478C249.318 449.657 249.318 453.188 251.496 455.365C252.585 456.455 254.013 456.999 255.44 456.999C256.867 456.999 258.295 456.455 259.383 455.365L302.791 411.958C306.334 414.114 310.49 415.355 314.931 415.355C327.847 415.355 338.355 404.847 338.355 391.931C338.355 387.49 337.113 383.334 334.958 379.792L378.365 336.384C380.544 334.206 380.544 330.674 378.365 328.497C376.188 326.319 372.657 326.319 370.478 328.496ZM314.931 129.798C321.696 129.798 327.201 135.303 327.201 142.068C327.201 148.835 321.696 154.338 314.931 154.338C308.165 154.338 302.661 148.835 302.661 142.068C302.661 135.303 308.165 129.798 314.931 129.798ZM52.7982 142.068C52.7982 135.303 58.3026 129.798 65.0682 129.798C71.8338 129.798 77.3382 135.303 77.3382 142.068C77.3382 148.835 71.8338 154.338 65.0682 154.338C58.3026 154.338 52.7982 148.835 52.7982 142.068ZM65.0682 404.201C58.3026 404.201 52.7982 398.697 52.7982 391.931C52.7982 385.165 58.3026 379.661 65.0682 379.661C71.8338 379.661 77.3382 385.165 77.3382 391.931C77.3382 398.697 71.8338 404.201 65.0682 404.201ZM237.592 320.913C235.904 320.913 234.317 320.257 233.124 319.062L218.762 304.7C217.716 303.653 216.298 303.066 214.818 303.066H195.577V302.694C195.577 299.614 193.08 297.117 190 297.117C186.919 297.117 184.422 299.614 184.422 302.694V303.066H165.181C163.701 303.066 162.283 303.654 161.237 304.7L146.873 319.063C145.682 320.256 144.095 320.913 142.407 320.913C140.718 320.913 139.132 320.256 137.937 319.059C136.743 317.867 136.086 316.28 136.086 314.592C136.086 312.904 136.743 311.317 137.938 310.123L152.3 295.761C153.346 294.715 153.934 293.297 153.934 291.817V242.179C153.934 240.7 153.346 239.282 152.3 238.236L137.937 223.873C136.744 222.68 136.086 221.093 136.086 219.405C136.086 217.717 136.744 216.131 137.941 214.934C139.132 213.742 140.719 213.084 142.407 213.084C144.096 213.084 145.682 213.742 146.876 214.937L161.238 229.299C162.283 230.344 163.702 230.932 165.181 230.932H184.422V266.998C184.422 270.079 186.919 272.575 190 272.575C193.08 272.575 195.577 270.079 195.577 266.998V230.933H214.818C216.298 230.933 217.716 230.346 218.762 229.3L233.126 214.936C234.317 213.743 235.904 213.086 237.592 213.086C239.281 213.086 240.867 213.743 242.062 214.94C243.256 216.132 243.913 217.719 243.913 219.407C243.913 221.095 243.256 222.681 242.061 223.876L227.699 238.238C226.653 239.283 226.065 240.702 226.065 242.181V291.819C226.065 293.298 226.653 294.717 227.699 295.763L242.062 310.126C243.255 311.319 243.913 312.906 243.913 314.593C243.913 316.281 243.255 317.867 242.058 319.065C240.867 320.257 239.281 320.913 237.592 320.913ZM314.931 404.201C308.165 404.201 302.661 398.697 302.661 391.931C302.661 385.165 308.165 379.661 314.931 379.661C321.696 379.661 327.201 385.165 327.201 391.931C327.201 398.697 321.696 404.201 314.931 404.201Z" fill="#0AD19D"/>
<path d="M314.931 386.354C313.458 386.354 312.023 386.948 310.99 387.99C309.948 389.023 309.354 390.466 309.354 391.931C309.354 393.396 309.948 394.838 310.99 395.872C312.023 396.913 313.458 397.508 314.931 397.508C316.403 397.508 317.838 396.913 318.872 395.872C319.913 394.838 320.508 393.396 320.508 391.931C320.508 390.466 319.913 389.023 318.872 387.99C317.838 386.948 316.403 386.354 314.931 386.354Z" fill="#0AD19D"/>
<path d="M314.931 147.645C316.403 147.645 317.838 147.05 318.872 146.009C319.913 144.976 320.508 143.533 320.508 142.068C320.508 140.603 319.913 139.16 318.872 138.127C317.838 137.086 316.403 136.491 314.931 136.491C313.458 136.491 312.023 137.086 310.99 138.127C309.948 139.16 309.354 140.603 309.354 142.068C309.354 143.533 309.948 144.976 310.99 146.009C312.023 147.05 313.458 147.645 314.931 147.645Z" fill="#0AD19D"/>
<path d="M65.068 136.491C63.5956 136.491 62.1604 137.086 61.1267 138.127C60.0856 139.16 59.4907 140.603 59.4907 142.068C59.4907 143.533 60.0856 144.976 61.1267 146.009C62.1604 147.05 63.5956 147.645 65.068 147.645C66.5404 147.645 67.9756 147.05 69.0093 146.009C70.0504 144.976 70.6453 143.533 70.6453 142.068C70.6453 140.603 70.0504 139.16 69.0093 138.127C67.9756 137.086 66.5404 136.491 65.068 136.491Z" fill="#0AD19D"/>
<path d="M207.847 243.575C204.767 243.575 202.269 246.072 202.269 249.152V279.269H177.729V249.152C177.729 246.072 175.232 243.575 172.152 243.575C169.072 243.575 166.575 246.072 166.575 249.152V284.847C166.575 287.928 169.072 290.424 172.152 290.424H207.847C210.927 290.424 213.424 287.928 213.424 284.847V249.152C213.424 246.073 210.927 243.575 207.847 243.575Z" fill="#0AD19D"/>
<path d="M490.5 242.938C490.5 237.208 490.812 231.948 491.438 227.156C492.167 222.26 493.208 217 494.562 211.375H525.969V224.344C525.969 231.531 526.385 237.885 527.219 243.406C528.156 248.927 529.615 253.615 531.594 257.469C533.677 261.219 536.385 264.083 539.719 266.062C543.156 267.938 547.323 268.875 552.219 268.875C559.927 268.875 565.812 266.792 569.875 262.625C573.938 258.354 575.969 252.156 575.969 244.031C575.969 239.865 575.656 236.062 575.031 232.625C574.51 229.083 573.521 225.594 572.062 222.156C570.708 218.719 568.833 215.125 566.438 211.375C564.042 207.521 560.969 203.25 557.219 198.562L515.031 148.406C507.531 138.823 501.75 129.188 497.688 119.5C493.625 109.708 491.594 99.2917 491.594 88.25C491.594 79.3958 492.948 71.2708 495.656 63.875C498.469 56.4792 502.479 50.125 507.688 44.8125C512.896 39.3958 519.302 35.2292 526.906 32.3125C534.615 29.2917 543.312 27.7812 553 27.7812C564.771 27.7812 574.562 29.4479 582.375 32.7812C590.292 36.1146 596.594 40.4896 601.281 45.9062C605.969 51.3229 609.25 57.4167 611.125 64.1875C613.104 70.8542 614.094 77.5729 614.094 84.3438C614.094 90.0729 613.625 95.3854 612.688 100.281C611.854 105.073 610.865 110.385 609.719 116.219H578.469V103.562C578.469 89.3958 576.438 78.5625 572.375 71.0625C568.312 63.4583 561.698 59.6562 552.531 59.6562C544.927 59.6562 539.25 61.7917 535.5 66.0625C531.75 70.2292 529.875 75.8542 529.875 82.9375C529.875 86.6875 530.135 90.0729 530.656 93.0938C531.281 96.1146 532.115 98.9271 533.156 101.531C534.302 104.031 535.656 106.479 537.219 108.875C538.781 111.271 540.552 113.771 542.531 116.375L589.562 173.25C598.104 184.396 604.667 195.125 609.25 205.438C613.833 215.646 616.125 226.479 616.125 237.938C616.125 247.417 614.615 255.958 611.594 263.562C608.677 271.167 604.458 277.625 598.938 282.938C593.417 288.25 586.75 292.365 578.938 295.281C571.125 298.094 562.323 299.5 552.531 299.5C540.448 299.5 530.396 297.885 522.375 294.656C514.458 291.427 508.104 287.156 503.312 281.844C498.625 276.531 495.292 270.49 493.312 263.719C491.438 256.948 490.5 250.021 490.5 242.938ZM674.619 109.969H657.9V81.8438H678.056L686.025 26.0625H714.15V81.8438H748.525V109.969H714.15V246.844C714.15 251.531 714.567 255.333 715.4 258.25C716.337 261.062 717.587 263.302 719.15 264.969C720.712 266.531 722.535 267.573 724.619 268.094C726.702 268.615 728.89 268.875 731.181 268.875C735.035 268.875 738.421 268.406 741.337 267.469C744.358 266.531 747.223 265.229 749.931 263.562V285.438C747.64 288.25 745.14 290.542 742.431 292.312C739.827 294.083 737.119 295.542 734.306 296.688C731.494 297.729 728.629 298.458 725.712 298.875C722.796 299.292 719.931 299.5 717.119 299.5C711.598 299.5 706.285 298.771 701.181 297.312C696.077 295.854 691.546 293.094 687.587 289.031C683.629 284.865 680.452 279.135 678.056 271.844C675.765 264.552 674.619 255.073 674.619 243.406V109.969ZM798.112 81.8438H827.019L830.456 103.719C834.831 95.5938 839.831 89.5 845.456 85.4375C851.185 81.375 857.019 79.3438 862.956 79.3438C874.31 79.3438 882.696 82.8333 888.112 89.8125C893.529 96.7917 896.237 107.26 896.237 121.219C896.237 122.99 896.081 125.125 895.769 127.625C895.56 130.021 895.196 132.573 894.675 135.281C894.258 137.885 893.685 140.542 892.956 143.25C892.331 145.854 891.654 148.25 890.925 150.438H863.425V130.438C863.425 126.062 863.112 122.469 862.487 119.656C861.967 116.844 861.237 114.604 860.3 112.938C859.362 111.167 858.269 109.969 857.019 109.344C855.769 108.615 854.415 108.25 852.956 108.25C849.831 108.25 846.915 109.292 844.206 111.375C841.602 113.354 839.415 116.167 837.644 119.812V297H798.112V81.8438ZM964.731 51.0625C957.44 51.0625 951.658 48.875 947.388 44.5C943.221 40.125 941.138 33.7188 941.138 25.2812C941.138 20.5938 941.658 16.6875 942.7 13.5625C943.846 10.3333 945.408 7.78125 947.388 5.90625C949.471 3.92708 951.971 2.52083 954.888 1.6875C957.804 0.75 961.138 0.28125 964.888 0.28125C972.7 0.28125 978.638 2.26042 982.7 6.21875C986.763 10.1771 988.794 16.5312 988.794 25.2812C988.794 33.4062 986.71 39.7604 982.544 44.3438C978.481 48.8229 972.544 51.0625 964.731 51.0625ZM944.263 81.8438H983.794V297H944.263V81.8438ZM1048.22 12.7812H1087.76V176.375H1089.01L1132.13 81.8438H1170.1L1122.29 180.281L1174.63 297H1134.32L1089.01 190.281H1087.76V297H1048.22V12.7812ZM1269.06 299.344C1259.79 299.344 1251.56 297.625 1244.38 294.188C1237.29 290.75 1231.3 285.385 1226.41 278.094C1221.51 270.802 1217.81 261.479 1215.31 250.125C1212.81 238.667 1211.56 224.917 1211.56 208.875V168.25C1211.56 154.604 1212.55 142.938 1214.53 133.25C1216.61 123.458 1219.27 115.281 1222.5 108.719C1225.83 102.052 1229.64 96.7917 1233.91 92.9375C1238.28 89.0833 1242.76 86.1667 1247.34 84.1875C1251.93 82.1042 1256.46 80.8021 1260.94 80.2812C1265.52 79.6562 1269.74 79.3438 1273.59 79.3438C1280.68 79.3438 1287.5 80.4375 1294.06 82.625C1300.62 84.7083 1306.41 88.3542 1311.41 93.5625C1316.41 98.6667 1320.36 105.542 1323.28 114.188C1326.3 122.833 1327.81 133.615 1327.81 146.531C1327.81 150.906 1327.66 155.333 1327.34 159.812C1327.14 164.292 1326.82 168.719 1326.41 173.094C1325.99 177.365 1325.42 181.531 1324.69 185.594C1324.06 189.656 1323.39 193.406 1322.66 196.844H1251.25V218.719C1251.25 228.094 1251.61 236.01 1252.34 242.469C1253.07 248.823 1254.27 253.979 1255.94 257.938C1257.71 261.792 1260.05 264.604 1262.97 266.375C1265.99 268.042 1269.74 268.875 1274.22 268.875C1276.61 268.875 1278.96 268.406 1281.25 267.469C1283.54 266.427 1285.52 264.76 1287.19 262.469C1288.96 260.177 1290.36 257.156 1291.41 253.406C1292.45 249.552 1292.97 244.812 1292.97 239.188V232.469H1325.94V240.75C1325.94 261.167 1321.04 276.062 1311.25 285.438C1301.56 294.708 1287.5 299.344 1269.06 299.344ZM1290.94 170.281C1291.04 169.135 1291.15 167.625 1291.25 165.75C1291.35 163.771 1291.41 161.74 1291.41 159.656C1291.51 157.573 1291.56 155.542 1291.56 153.562C1291.56 151.479 1291.56 149.708 1291.56 148.25C1291.56 134.083 1289.9 123.875 1286.56 117.625C1283.23 111.375 1278.28 108.25 1271.72 108.25C1268.28 108.25 1265.26 109.083 1262.66 110.75C1260.05 112.312 1257.92 115.021 1256.25 118.875C1254.58 122.625 1253.33 127.625 1252.5 133.875C1251.67 140.125 1251.25 147.885 1251.25 157.156V170.281H1290.94ZM1383.65 81.8438H1412.56L1415.99 103.719C1420.37 95.5938 1425.37 89.5 1430.99 85.4375C1436.72 81.375 1442.56 79.3438 1448.49 79.3438C1459.85 79.3438 1468.23 82.8333 1473.65 89.8125C1479.07 96.7917 1481.78 107.26 1481.78 121.219C1481.78 122.99 1481.62 125.125 1481.31 127.625C1481.1 130.021 1480.73 132.573 1480.21 135.281C1479.8 137.885 1479.22 140.542 1478.49 143.25C1477.87 145.854 1477.19 148.25 1476.46 150.438H1448.96V130.438C1448.96 126.062 1448.65 122.469 1448.03 119.656C1447.5 116.844 1446.78 114.604 1445.84 112.938C1444.9 111.167 1443.81 109.969 1442.56 109.344C1441.31 108.615 1439.95 108.25 1438.49 108.25C1435.37 108.25 1432.45 109.292 1429.74 111.375C1427.14 113.354 1424.95 116.167 1423.18 119.812V297H1383.65V81.8438Z" fill="white"/>
<path d="M599.55 422.97C599.55 432.093 598.077 440.395 595.13 447.875C592.24 455.355 588.132 461.787 582.805 467.17C577.478 472.497 571.103 476.633 563.68 479.58C556.257 482.527 548.012 484 538.945 484H493.045V361.94H538.945C548.012 361.94 556.257 363.413 563.68 366.36C571.103 369.307 577.478 373.472 582.805 378.855C588.132 384.182 592.24 390.613 595.13 398.15C598.077 405.63 599.55 413.903 599.55 422.97ZM581.02 422.97C581.02 415.717 580.028 409.228 578.045 403.505C576.062 397.725 573.228 392.852 569.545 388.885C565.918 384.862 561.498 381.802 556.285 379.705C551.128 377.608 545.348 376.56 538.945 376.56H511.235V469.38H538.945C545.348 469.38 551.128 468.332 556.285 466.235C561.498 464.138 565.918 461.107 569.545 457.14C573.228 453.117 576.062 448.243 578.045 442.52C580.028 436.797 581.02 430.28 581.02 422.97ZM715.616 420.76C720.263 420.76 724.343 420.193 727.856 419.06C731.426 417.927 734.401 416.34 736.781 414.3C739.161 412.203 740.946 409.738 742.136 406.905C743.326 404.015 743.921 400.842 743.921 397.385C743.921 390.358 741.598 385.06 736.951 381.49C732.361 377.92 725.448 376.135 716.211 376.135H699.126V420.76H715.616ZM772.566 484H756.416C753.186 484 750.835 482.725 749.361 480.175L719.186 437.845C718.223 436.428 717.175 435.437 716.041 434.87C714.908 434.247 713.208 433.935 710.941 433.935H699.126V484H681.021V361.94H716.211C724.088 361.94 730.86 362.762 736.526 364.405C742.25 365.992 746.953 368.287 750.636 371.29C754.376 374.237 757.125 377.807 758.881 382C760.695 386.193 761.601 390.897 761.601 396.11C761.601 400.36 760.949 404.355 759.646 408.095C758.343 411.835 756.416 415.207 753.866 418.21C751.373 421.157 748.313 423.707 744.686 425.86C741.06 428.013 736.951 429.657 732.361 430.79C734.628 432.15 736.583 434.048 738.226 436.485L772.566 484ZM959.319 422.97C959.319 432.093 957.846 440.48 954.899 448.13C952.009 455.723 947.901 462.297 942.574 467.85C937.247 473.347 930.872 477.625 923.449 480.685C916.026 483.745 907.781 485.275 898.714 485.275C889.704 485.275 881.459 483.745 873.979 480.685C866.556 477.625 860.181 473.347 854.854 467.85C849.584 462.297 845.476 455.723 842.529 448.13C839.582 440.48 838.109 432.093 838.109 422.97C838.109 413.903 839.582 405.545 842.529 397.895C845.476 390.245 849.584 383.672 854.854 378.175C860.181 372.622 866.556 368.315 873.979 365.255C881.459 362.138 889.704 360.58 898.714 360.58C907.781 360.58 916.026 362.138 923.449 365.255C930.872 368.315 937.247 372.622 942.574 378.175C947.901 383.672 952.009 390.245 954.899 397.895C957.846 405.545 959.319 413.903 959.319 422.97ZM940.789 422.97C940.789 415.717 939.797 409.2 937.814 403.42C935.831 397.64 932.997 392.738 929.314 388.715C925.687 384.692 921.267 381.603 916.054 379.45C910.897 377.297 905.117 376.22 898.714 376.22C892.311 376.22 886.502 377.297 881.289 379.45C876.132 381.603 871.712 384.692 868.029 388.715C864.346 392.738 861.512 397.64 859.529 403.42C857.546 409.2 856.554 415.717 856.554 422.97C856.554 430.28 857.546 436.825 859.529 442.605C861.512 448.328 864.346 453.202 868.029 457.225C871.712 461.248 876.132 464.337 881.289 466.49C886.502 468.587 892.311 469.635 898.714 469.635C905.117 469.635 910.897 468.587 916.054 466.49C921.267 464.337 925.687 461.248 929.314 457.225C932.997 453.202 935.831 448.328 937.814 442.605C939.797 436.825 940.789 430.28 940.789 422.97ZM1140.66 361.94V484H1131.48C1130.07 484 1128.88 483.745 1127.91 483.235C1127.01 482.725 1126.07 481.903 1125.11 480.77L1056.17 391.605C1056.29 393.135 1056.37 394.637 1056.43 396.11C1056.54 397.583 1056.6 398.972 1056.6 400.275V484H1040.7V361.94H1050.05C1051.64 361.94 1052.83 362.138 1053.62 362.535C1054.42 362.875 1055.3 363.697 1056.26 365L1125.36 454.25C1125.19 452.607 1125.05 451.02 1124.94 449.49C1124.88 447.903 1124.85 446.43 1124.85 445.07V361.94H1140.66ZM1305.25 469.295L1305.16 484H1229.51V361.94H1305.16V376.645H1247.7V415.32H1293.94V429.515H1247.7V469.295H1305.25ZM1449.43 381.83C1448.86 382.793 1448.27 383.502 1447.65 383.955C1447.02 384.408 1446.23 384.635 1445.27 384.635C1444.25 384.635 1443.08 384.182 1441.78 383.275C1440.48 382.312 1438.83 381.263 1436.85 380.13C1434.92 378.94 1432.6 377.892 1429.88 376.985C1427.16 376.022 1423.9 375.54 1420.11 375.54C1416.54 375.54 1413.39 376.022 1410.67 376.985C1408.01 377.892 1405.77 379.167 1403.96 380.81C1402.14 382.397 1400.75 384.295 1399.79 386.505C1398.88 388.658 1398.43 391.01 1398.43 393.56C1398.43 396.847 1399.25 399.567 1400.9 401.72C1402.6 403.873 1404.81 405.715 1407.53 407.245C1410.25 408.775 1413.33 410.107 1416.79 411.24C1420.25 412.373 1423.79 413.563 1427.42 414.81C1431.04 416 1434.58 417.388 1438.04 418.975C1441.5 420.562 1444.59 422.573 1447.31 425.01C1450.03 427.39 1452.21 430.337 1453.85 433.85C1455.55 437.307 1456.4 441.557 1456.4 446.6C1456.4 451.983 1455.47 457.027 1453.6 461.73C1451.78 466.433 1449.12 470.542 1445.61 474.055C1442.09 477.568 1437.76 480.345 1432.6 482.385C1427.5 484.368 1421.69 485.36 1415.18 485.36C1411.27 485.36 1407.47 484.963 1403.79 484.17C1400.1 483.433 1396.62 482.385 1393.33 481.025C1390.04 479.608 1386.96 477.937 1384.07 476.01C1381.23 474.027 1378.68 471.817 1376.42 469.38L1381.6 460.71C1382.11 460.03 1382.71 459.463 1383.39 459.01C1384.12 458.557 1384.94 458.33 1385.85 458.33C1387.04 458.33 1388.4 458.953 1389.93 460.2C1391.52 461.447 1393.44 462.835 1395.71 464.365C1398.03 465.838 1400.78 467.198 1403.96 468.445C1407.19 469.692 1411.1 470.315 1415.69 470.315C1419.43 470.315 1422.77 469.833 1425.72 468.87C1428.66 467.85 1431.13 466.433 1433.11 464.62C1435.15 462.75 1436.71 460.512 1437.79 457.905C1438.86 455.298 1439.4 452.408 1439.4 449.235C1439.4 445.665 1438.58 442.747 1436.94 440.48C1435.29 438.213 1433.11 436.315 1430.39 434.785C1427.67 433.255 1424.58 431.952 1421.13 430.875C1417.67 429.798 1414.13 428.693 1410.5 427.56C1406.87 426.37 1403.33 425.01 1399.88 423.48C1396.42 421.95 1393.33 419.967 1390.61 417.53C1387.89 415.037 1385.71 411.948 1384.07 408.265C1382.42 404.525 1381.6 399.935 1381.6 394.495C1381.6 390.132 1382.45 385.91 1384.15 381.83C1385.85 377.75 1388.32 374.152 1391.55 371.035C1394.83 367.862 1398.86 365.34 1403.62 363.47C1408.38 361.543 1413.82 360.58 1419.94 360.58C1426.79 360.58 1433.08 361.685 1438.81 363.895C1444.59 366.048 1449.6 369.165 1453.85 373.245L1449.43 381.83Z" fill="white"/>
</svg>
